<svg class="svg-icon" style="width: 1em;height: 1em;vertical-align: middle;fill: currentColor;overflow: hidden;" viewBox="0 0 1024 1024" version="1.1" xmlns="http://www.w3.org/2000/svg"><path d="M512 524.6c-116.5 0-211.3-94.8-211.3-211.3S395.5 102 512 102c116.5 0 211.3 94.8 211.3 211.3S628.5 524.6 512 524.6z m0-352.6c-77.9 0-141.3 63.4-141.3 141.3S434.1 454.6 512 454.6s141.3-63.4 141.3-141.3S589.9 172 512 172zM845.4 922H178.5c-24.9 0-48.3-12.1-62.5-32.4-14.4-20.4-17.9-46.7-9.4-70.3C129.9 754 166.2 699 214.3 655.8c75.4-67.7 175.6-102.1 297.8-102.1 118.5 0 217 34.1 292.9 101.3 47.7 42.3 85.2 96.7 111.4 161.8 9.6 23.6 6.8 50.3-7.5 71.5-14.2 21.1-38 33.7-63.5 33.7zM512.1 623.7c-215.9 0-303.9 119.2-339.6 219.2-1 2.9-0.2 5.1 0.8 6.4 1.3 1.8 3 2.7 5.3 2.7h666.9c2.3 0 4.2-1 5.4-2.9 1.3-1.9 1.5-4 0.6-6.2-40.3-100-131.7-219.2-339.4-219.2z" fill="#151515" /></svg>