<svg class="svg-icon" style="width: 1.01171875em;height: 1em;vertical-align: middle;fill: currentColor;overflow: hidden;" viewBox="0 0 1036 1024" version="1.1" xmlns="http://www.w3.org/2000/svg"><path d="M874.383302 841.998735a161.922834 161.922834 0 1 1 161.922833-161.922834 161.922834 161.922834 0 0 1-161.922833 161.922834z m0-259.076534a97.1537 97.1537 0 1 0 97.1537 97.1537 97.1537 97.1537 0 0 0-97.1537-97.1537z"  /><path d="M777.229602 1024V809.614168h64.769133v109.783681l32.384567-16.192283 32.384566 16.192283V809.614168h64.769134v214.385832l-97.1537-48.57685-97.1537 48.57685z"  /><path d="M712.460468 906.767868H0V0h1036.306135v518.153068h-64.769133V64.769133H64.769133v777.229602h647.691335v64.769133z"  /><path d="M582.922201 194.3074h323.845667v64.769134H582.922201zM129.214421 323.845667H906.767868v64.769134H129.214421zM129.214421 453.70778h518.153068v64.769133h-518.153068zM129.214421 712.784314h323.845668v64.769133h-323.845668zM129.214421 194.3074h129.538267v64.769134h-129.538267z"  /></svg>